<?xml version="1.0" encoding="utf-8"?>
<!-- Generator: Adobe Illustrator 24.0.0, SVG Export Plug-In . SVG Version: 6.00 Build 0)  -->
<svg version="1.1" id="Capa_1" xmlns="http://www.w3.org/2000/svg" xmlns:xlink="http://www.w3.org/1999/xlink" x="0px" y="0px"
	 viewBox="0 0 300 300" style="enable-background:new 0 0 300 300;" xml:space="preserve">
<style type="text/css">
	.st0{fill:#E4333A;}
	.st1{clip-path:url(#SVGID_2_);fill:#E4333A;stroke:#E4333A;stroke-miterlimit:10;}
	.st2{clip-path:url(#SVGID_2_);}
	.st3{fill:#E4333A;stroke:#FFFFFF;stroke-width:2.8724;stroke-miterlimit:10;}
	.st4{fill:#FFFFFF;}
	.st5{fill:none;stroke:#E4333A;stroke-width:8;stroke-miterlimit:10;}
	.st6{clip-path:url(#SVGID_4_);fill:#E4333A;}
	.st7{clip-path:url(#SVGID_6_);fill:#E4333A;stroke:#E4333A;stroke-miterlimit:10;}
	.st8{fill:none;stroke:#E4333A;stroke-width:4.8967;stroke-miterlimit:10;}
	.st9{fill:#FFFFFF;stroke:#E4333A;stroke-width:8;stroke-miterlimit:10;}
	.st10{fill-rule:evenodd;clip-rule:evenodd;fill:#FFFFFF;}
</style>
<g>
	<g>
		<g>
			<g>
				<defs>
					<path id="SVGID_5_" d="M261.87,190.69V71.96c0-13.16-10.66-23.83-23.82-23.83H42.19c-13.16,0-23.82,10.67-23.82,23.83v118.74
						l0,0c0,13.15,10.66,23.82,23.82,23.82h195.86C251.21,214.52,261.87,203.85,261.87,190.69L261.87,190.69z"/>
				</defs>
				<clipPath id="SVGID_2_">
					<use xlink:href="#SVGID_5_"  style="overflow:visible;"/>
				</clipPath>
				<rect x="13.88" y="198.66" class="st1" width="267.11" height="34.86"/>
				<use xlink:href="#SVGID_5_"  style="overflow:visible;fill:none;stroke:#E4333A;stroke-width:9;stroke-miterlimit:10;"/>
			</g>
			<polygon class="st0" points="168.29,122.38 146.79,122.38 158.13,98.69 134.19,98.69 122.04,136.35 137.24,136.35 124.87,170.36 
							"/>
		</g>
		<path class="st0" d="M192.91,248.66h-28.45v-50.42h-48.67v50.42H87.33c-2.41,0-4.37,1.96-4.37,4.37v3.2
			c0,2.41,1.96,4.37,4.37,4.37h105.58c2.41,0,4.37-1.95,4.37-4.37v-3.2C197.28,250.62,195.32,248.66,192.91,248.66z"/>
	</g>
	<g>
		<path class="st0" d="M281.66,260.6H238.9c-4.61,0-8.34-3.74-8.34-8.34v-81.23c0-4.61,3.74-8.34,8.34-8.34h42.76
			c4.61,0,8.34,3.74,8.34,8.34v81.23C290,256.86,286.26,260.6,281.66,260.6z"/>
		<rect x="236.99" y="174.78" class="st4" width="46.57" height="69.59"/>
		<circle class="st4" cx="260.28" cy="251.57" r="4.63"/>
		<polygon class="st0" points="269.7,204.63 260.94,204.63 265.56,194.97 255.8,194.97 250.85,210.32 257.05,210.32 252,224.19 		
			"/>
	</g>
</g>
</svg>
