<?xml version="1.0" encoding="utf-8"?>
<!-- Generator: Adobe Illustrator 24.0.0, SVG Export Plug-In . SVG Version: 6.00 Build 0)  -->
<svg version="1.1" id="Capa_1" xmlns="http://www.w3.org/2000/svg" xmlns:xlink="http://www.w3.org/1999/xlink" x="0px" y="0px"
	 viewBox="0 0 300 300" style="enable-background:new 0 0 300 300;" xml:space="preserve">
<style type="text/css">
	.st0{fill:#E4333A;}
	.st1{clip-path:url(#SVGID_2_);fill:#E4333A;stroke:#E4333A;stroke-miterlimit:10;}
	.st2{clip-path:url(#SVGID_2_);}
	.st3{fill:#E4333A;stroke:#FFFFFF;stroke-width:2.8724;stroke-miterlimit:10;}
	.st4{fill:#FFFFFF;}
	.st5{fill:none;stroke:#E4333A;stroke-width:8;stroke-miterlimit:10;}
	.st6{clip-path:url(#SVGID_4_);fill:#E4333A;}
	.st7{clip-path:url(#SVGID_6_);fill:#E4333A;stroke:#E4333A;stroke-miterlimit:10;}
	.st8{fill:none;stroke:#E4333A;stroke-width:4.8967;stroke-miterlimit:10;}
	.st9{fill:#FFFFFF;stroke:#E4333A;stroke-width:8;stroke-miterlimit:10;}
	.st10{fill-rule:evenodd;clip-rule:evenodd;fill:#FFFFFF;}
</style>
<g>
	<path class="st5" d="M57.35,20.16h180.48V278H57.35V20.16z"/>
	<g>
		<defs>
			<path id="SVGID_3_" d="M33.2,82.04H164c6.6,0,11.95,5.35,11.95,11.95v58.6c0,6.6-5.35,11.95-11.95,11.95H33.2
				c-6.6,0-11.95-5.35-11.95-11.95V94C21.25,87.4,26.6,82.04,33.2,82.04z"/>
		</defs>
		<use xlink:href="#SVGID_3_"  style="overflow:visible;fill:#FFFFFF;"/>
		<clipPath id="SVGID_2_">
			<use xlink:href="#SVGID_3_"  style="overflow:visible;"/>
		</clipPath>
		<path style="clip-path:url(#SVGID_2_);fill:#E4333A;" d="M175.95,102.67L98.6,123.3l-77.35-20.63V82.04h154.7V102.67z"/>
		<use xlink:href="#SVGID_3_"  style="overflow:visible;fill:none;stroke:#E4333A;stroke-width:5;stroke-miterlimit:10;"/>
	</g>
	<path class="st0" d="M21.25,185.18h103.13v61.88H21.25V185.18z"/>
	<g>
		<path class="st4" d="M37.58,206.92h30.94v3.77H37.58V206.92z"/>
		<path class="st4" d="M37.58,220.32h30.94v3.77H37.58V220.32z"/>
	</g>
	<polygon class="st0" points="215.84,54.46 203.53,54.46 210.02,40.88 196.31,40.88 189.34,62.46 198.05,62.46 190.97,81.95 	"/>
	<polygon class="st4" points="109.7,213.62 99.38,213.62 104.82,202.24 93.33,202.24 87.5,220.32 94.8,220.32 88.86,236.65 	"/>
	<polygon class="st0" points="53.52,129.2 45.71,129.2 49.83,120.59 41.14,120.59 36.72,134.28 42.24,134.28 37.75,146.63 	"/>
	<g>
		<path class="st0" d="M258.7,254.71v4.38c0,3.19,2.15,5.78,4.8,5.78h6.7c2.65,0,4.8-2.59,4.8-5.78v-4.38v-4.47h-16.3V254.71z"/>
		<path class="st0" d="M275,160.35v-4.49c0-0.92-0.11-1.83-0.32-2.66l-4.59-17.93c-1.27-4.96-5.21-4.98-6.5-0.02l-4.56,17.6
			c-0.22,0.84-0.33,1.76-0.33,2.69v4.83v85.61H275V160.35z"/>
	</g>
</g>
</svg>
