<?xml version="1.0" encoding="utf-8"?>
<!-- Generator: Adobe Illustrator 24.0.0, SVG Export Plug-In . SVG Version: 6.00 Build 0)  -->
<svg version="1.1" id="Capa_1" xmlns="http://www.w3.org/2000/svg" xmlns:xlink="http://www.w3.org/1999/xlink" x="0px" y="0px"
	 viewBox="0 0 300 300" style="enable-background:new 0 0 300 300;" xml:space="preserve">
<style type="text/css">
	.st0{fill:#E4333A;}
	.st1{clip-path:url(#SVGID_2_);fill:#E4333A;stroke:#E4333A;stroke-miterlimit:10;}
	.st2{clip-path:url(#SVGID_2_);}
	.st3{fill:#E4333A;stroke:#FFFFFF;stroke-width:2.8724;stroke-miterlimit:10;}
	.st4{fill:#FFFFFF;}
	.st5{fill:none;stroke:#E4333A;stroke-width:8;stroke-miterlimit:10;}
	.st6{clip-path:url(#SVGID_4_);fill:#E4333A;}
	.st7{clip-path:url(#SVGID_6_);fill:#E4333A;stroke:#E4333A;stroke-miterlimit:10;}
	.st8{fill:none;stroke:#E4333A;stroke-width:4.8967;stroke-miterlimit:10;}
	.st9{fill:#FFFFFF;stroke:#E4333A;stroke-width:8;stroke-miterlimit:10;}
	.st10{fill-rule:evenodd;clip-rule:evenodd;fill:#FFFFFF;}
</style>
<g>
	<g>
		<path class="st8" d="M165.87,178.12L165.87,178.12c-11.19,1.27-21.29-6.77-22.55-17.96l-3.69-32.53
			c-1.27-11.19,6.77-21.29,17.96-22.55h0c11.19-1.27,21.29,6.77,22.55,17.96l3.69,32.53C185.09,166.75,177.05,176.85,165.87,178.12z
			"/>
		<path class="st0" d="M76.8,242.91l-18.86,5.48c-2.32,0.67-4.75-0.66-5.42-2.98l-16.39-56.38c-0.67-2.32,0.66-4.75,2.98-5.42
			l18.86-5.48c2.32-0.67,4.75,0.66,5.42,2.98l16.39,56.38C80.45,239.81,79.12,242.24,76.8,242.91z"/>
		<path class="st9" d="M87.12,188.68l-57.06,6.47c-3.88,0.44-7.38-2.35-7.82-6.23l-7.13-62.89c-0.44-3.88,2.35-7.38,6.23-7.82
			l57.06-6.47L87.12,188.68z"/>
		<path class="st0" d="M149.18,213.07l-68.96-24.11l-8.71-76.81l62.05-36.91c5.73-0.65,10.8,2.56,11.32,7.18l13.73,121.13
			C159.13,208.15,154.91,212.42,149.18,213.07z"/>
		<path class="st9" d="M170.37,224.55l-14.51,1.64c-3.78,0.43-7.2-2.29-7.63-6.08L130.92,67.38c-0.43-3.78,2.29-7.2,6.08-7.63
			l14.51-1.64c3.78-0.43,7.2,2.29,7.63,6.08l17.31,152.74C176.87,220.71,174.15,224.12,170.37,224.55z"/>
	</g>
	<g>
		<circle class="st0" cx="262.36" cy="132.99" r="27.64"/>
		<g>
			<path class="st4" d="M279.08,132.99c-0.05,2.37-0.08,4.75-0.16,7.12c-0.07,1.98-0.51,3.88-1.64,5.54
				c-1.59,2.34-3.89,3.53-6.64,3.82c-1.58,0.17-3.18,0.21-4.77,0.21c-3.55,0-7.09-0.04-10.64-0.1c-1.75-0.03-3.45-0.41-4.99-1.29
				c-2.49-1.43-3.91-3.62-4.3-6.42c-0.24-1.76-0.3-3.55-0.31-5.32c-0.02-3.58,0.02-7.16,0.1-10.73c0.04-1.97,0.51-3.84,1.64-5.49
				c1.59-2.34,3.89-3.53,6.64-3.82c1.58-0.17,3.18-0.21,4.77-0.21c3.55,0,7.09,0.04,10.64,0.1c1.75,0.03,3.45,0.41,4.99,1.29
				c2.49,1.43,3.92,3.62,4.3,6.42c0.25,1.85,0.25,3.74,0.32,5.61c0.04,1.09,0.01,2.19,0.01,3.28
				C279.05,132.99,279.07,132.99,279.08,132.99z M262.33,146.76c0-0.03,0-0.06,0-0.09c1.39,0,2.78,0.04,4.17-0.01
				c1.43-0.05,2.88-0.07,4.29-0.29c2.35-0.36,4.01-1.68,4.71-4.01c0.24-0.81,0.38-1.68,0.4-2.53c0.08-3,0.12-6,0.11-8.99
				c0-1.9-0.05-3.81-0.2-5.71c-0.14-1.83-0.87-3.41-2.42-4.51c-1.23-0.87-2.66-1.19-4.12-1.2c-4.62-0.04-9.24-0.03-13.87,0
				c-1.32,0.01-2.62,0.28-3.77,0.97c-1.78,1.07-2.62,2.75-2.78,4.74c-0.15,1.87-0.19,3.74-0.2,5.62c-0.01,3.05,0.03,6.09,0.1,9.14
				c0.03,1.47,0.32,2.89,1.18,4.13c1.1,1.58,2.69,2.34,4.54,2.46C257.08,146.64,259.71,146.67,262.33,146.76z"/>
			<path class="st4" d="M271.24,122.07c1.13-0.01,2.02,0.87,2.02,2.01c0,1.1-0.88,2-1.97,2.01c-1.13,0.01-2.04-0.87-2.05-1.99
				C269.23,122.97,270.11,122.07,271.24,122.07z"/>
			<path class="st4" d="M262.34,124.41c-4.76,0-8.6,3.82-8.6,8.56c0,4.77,3.83,8.61,8.6,8.61c4.73,0,8.58-3.85,8.58-8.59
				C270.92,128.24,267.08,124.41,262.34,124.41z M262.35,138.55c-3.05,0.01-5.55-2.46-5.58-5.52c-0.03-3.07,2.46-5.59,5.54-5.6
				c3.07-0.01,5.58,2.49,5.58,5.57C267.89,136.06,265.41,138.54,262.35,138.55z"/>
		</g>
	</g>
	<g>
		<circle class="st0" cx="225.62" cy="192.84" r="27.64"/>
		<g>
			<g>
				<g>
					<path class="st4" d="M243.18,181.76c-1.12,0.51-2.36,0.82-3.58,1.02c0.58-0.1,1.43-1.14,1.76-1.56
						c0.52-0.64,0.95-1.38,1.19-2.17c0.03-0.06,0.05-0.14-0.01-0.19c-0.08-0.03-0.13-0.02-0.19,0.02c-1.35,0.73-2.76,1.25-4.25,1.62
						c-0.12,0.03-0.22,0-0.29-0.08c-0.12-0.14-0.24-0.27-0.37-0.38c-0.63-0.53-1.3-0.95-2.06-1.26c-1-0.41-2.08-0.58-3.15-0.51
						c-1.04,0.07-2.07,0.36-2.99,0.85c-0.93,0.48-1.76,1.16-2.41,1.97c-0.68,0.84-1.18,1.84-1.44,2.89
						c-0.25,1.02-0.23,2.02-0.08,3.05c0.02,0.17,0.01,0.19-0.15,0.17c-5.83-0.87-10.67-2.96-14.59-7.43
						c-0.17-0.19-0.26-0.19-0.4,0.02c-1.72,2.57-0.88,6.71,1.26,8.74c0.29,0.27,0.58,0.54,0.9,0.79c-0.12,0.02-1.54-0.13-2.82-0.79
						c-0.17-0.11-0.26-0.05-0.27,0.15c-0.02,0.28,0.01,0.53,0.05,0.84c0.33,2.61,2.14,5.02,4.61,5.97c0.29,0.12,0.62,0.23,0.94,0.29
						c-0.56,0.12-1.14,0.21-2.76,0.09c-0.2-0.04-0.28,0.06-0.2,0.26c1.22,3.31,3.84,4.3,5.8,4.86c0.26,0.05,0.53,0.05,0.79,0.11
						c-0.02,0.02-0.03,0.02-0.05,0.05c-0.65,0.99-2.91,1.73-3.96,2.1c-1.91,0.67-4,0.97-6.02,0.77c-0.32-0.05-0.39-0.04-0.48,0
						c-0.09,0.05-0.01,0.13,0.09,0.22c0.41,0.27,0.83,0.51,1.25,0.74c1.28,0.68,2.62,1.22,4.02,1.61c7.23,2,15.37,0.53,20.8-4.86
						c4.26-4.24,5.76-10.08,5.76-15.93c0-0.23,0.27-0.36,0.43-0.48c1.11-0.83,1.99-1.83,2.82-2.94c0.19-0.25,0.17-0.47,0.17-0.56
						c0-0.02,0-0.03,0-0.03C243.31,181.67,243.33,181.69,243.18,181.76z"/>
				</g>
				<g>
					<path class="st10" d="M218.43,207.29C218.39,207.29,217.85,207.29,218.43,207.29C218.43,207.29,218.34,207.29,218.43,207.29z"
						/>
				</g>
				<g>
					<path class="st10" d="M219.62,207.32C219.62,207.26,220.25,207.32,219.62,207.32C219.62,207.29,219.7,207.32,219.62,207.32z"/>
				</g>
				<g>
					<path class="st10" d="M232.14,178.31c-0.04,0.03-0.09,0.03-0.15,0C232.05,178.31,232.1,178.31,232.14,178.31z"/>
				</g>
			</g>
		</g>
	</g>
	<g>
		<circle class="st0" cx="225.62" cy="71.32" r="27.64"/>
		<path class="st4" d="M233.95,71.33h-5.82V92.1h-8.63V71.33h-4.1V64h4.1v-4.75c0-3.39,1.61-8.71,8.71-8.71l6.39,0.03v7.12h-4.64
			c-0.76,0-1.83,0.38-1.83,2v4.32h6.58L233.95,71.33z M235.85,69.21"/>
	</g>
</g>
</svg>
