<?xml version="1.0" encoding="utf-8"?>
<!-- Generator: Adobe Illustrator 24.0.0, SVG Export Plug-In . SVG Version: 6.00 Build 0)  -->
<svg version="1.1" id="Capa_1" xmlns="http://www.w3.org/2000/svg" xmlns:xlink="http://www.w3.org/1999/xlink" x="0px" y="0px"
	 viewBox="0 0 300 300" style="enable-background:new 0 0 300 300;" xml:space="preserve">
<style type="text/css">
	.st0{fill:#E4333A;}
	.st1{clip-path:url(#SVGID_2_);fill:#E4333A;stroke:#E4333A;stroke-miterlimit:10;}
	.st2{clip-path:url(#SVGID_2_);}
	.st3{fill:#E4333A;stroke:#FFFFFF;stroke-width:2.8724;stroke-miterlimit:10;}
	.st4{fill:#FFFFFF;}
	.st5{fill:none;stroke:#E4333A;stroke-width:8;stroke-miterlimit:10;}
	.st6{clip-path:url(#SVGID_4_);fill:#E4333A;}
	.st7{clip-path:url(#SVGID_6_);fill:#E4333A;stroke:#E4333A;stroke-miterlimit:10;}
	.st8{fill:none;stroke:#E4333A;stroke-width:4.8967;stroke-miterlimit:10;}
	.st9{fill:#FFFFFF;stroke:#E4333A;stroke-width:8;stroke-miterlimit:10;}
	.st10{fill-rule:evenodd;clip-rule:evenodd;fill:#FFFFFF;}
</style>
<g>
	<path class="st0" d="M12.15,237.7c-0.03-49.11-0.11-98.22-0.07-147.33c0.01-11.46,4.77-18.15,15.31-22.08
		c1.7-0.63,2.08-1.75,2.33-3.19c1.09-6.28,5.3-9.36,11.15-10.25c9.24-1.4,18.55-1.3,27.81-0.11c6.27,0.81,10.7,4.03,11.83,10.6
		c0.36,2.09,1.43,2.44,3.21,2.44c5.3-0.02,10.59,0.17,15.89,0.08c4.35-0.08,7.46-2.63,10.09-5.81c2.77-3.36,4.37-7.36,6.1-11.29
		c1.27-2.88,2.5-5.78,3.96-8.57c3.07-5.86,7.97-8.79,14.61-8.79c21.62,0,43.24,0,64.86,0c6.46,0,11.34,2.83,14.34,8.51
		c2.01,3.78,3.66,7.76,5.4,11.68c1.58,3.56,3.43,6.94,6.18,9.73c3.03,3.08,6.51,4.71,11.09,4.57c9.87-0.3,19.76-0.13,29.64-0.11
		c11.98,0.01,19.89,7.26,21.02,19.23c0.08,0.85,0.1,1.72,0.1,2.57c-0.02,49.68-0.05,99.37-0.07,149.05
		c-1.81,11.83-7.43,16.76-19.59,16.77c-78.56,0.06-157.13,0.05-235.69,0.01c-2.28,0-4.57,0.02-6.81-0.63
		C16.3,252.27,12.28,246.44,12.15,237.7z"/>
	<circle class="st4" cx="164.99" cy="160.57" r="73.83"/>
	<circle class="st0" cx="164.99" cy="160.57" r="50.65"/>
	<circle class="st4" cx="83.27" cy="104.1" r="9.3"/>
	<rect x="243.41" y="101.83" class="st4" width="17.5" height="11.58"/>
	<polygon class="st4" points="188.84,64.82 148.36,64.82 152.17,46.04 185.19,46.04 	"/>
</g>
</svg>
