<?xml version="1.0" encoding="utf-8"?>
<!-- Generator: Adobe Illustrator 24.0.0, SVG Export Plug-In . SVG Version: 6.00 Build 0)  -->
<svg version="1.1" id="Capa_1" xmlns="http://www.w3.org/2000/svg" xmlns:xlink="http://www.w3.org/1999/xlink" x="0px" y="0px"
	 viewBox="0 0 300 300" style="enable-background:new 0 0 300 300;" xml:space="preserve">
<style type="text/css">
	.st0{fill:#E4333A;}
	.st1{clip-path:url(#SVGID_2_);fill:#E4333A;stroke:#E4333A;stroke-miterlimit:10;}
	.st2{clip-path:url(#SVGID_2_);}
	.st3{fill:#E4333A;stroke:#FFFFFF;stroke-width:2.8724;stroke-miterlimit:10;}
	.st4{fill:#FFFFFF;}
	.st5{fill:none;stroke:#E4333A;stroke-width:8;stroke-miterlimit:10;}
	.st6{clip-path:url(#SVGID_4_);fill:#E4333A;}
	.st7{clip-path:url(#SVGID_6_);fill:#E4333A;stroke:#E4333A;stroke-miterlimit:10;}
	.st8{fill:none;stroke:#E4333A;stroke-width:4.8967;stroke-miterlimit:10;}
	.st9{fill:#FFFFFF;stroke:#E4333A;stroke-width:8;stroke-miterlimit:10;}
	.st10{fill-rule:evenodd;clip-rule:evenodd;fill:#FFFFFF;}
</style>
<g>
	<path class="st0" d="M203.67,258.38h-30.1v-53.34h-51.5v53.34h-30.1c-2.55,0-4.62,2.07-4.62,4.62v3.39c0,2.55,2.07,4.62,4.62,4.62
		h111.71c2.55,0,4.62-2.07,4.62-4.62V263C208.29,260.45,206.22,258.38,203.67,258.38z"/>
	<g>
		<defs>
			<path id="SVGID_1_" d="M276.64,197.04V71.42c0-13.92-11.28-25.21-25.21-25.21H44.21C30.28,46.2,19,57.49,19,71.42v125.63l0,0
				c0,13.92,11.28,25.21,25.21,25.21h207.22C265.35,222.25,276.64,210.96,276.64,197.04L276.64,197.04z"/>
		</defs>
		<clipPath id="SVGID_2_">
			<use xlink:href="#SVGID_1_"  style="overflow:visible;"/>
		</clipPath>
		<rect x="14.25" y="205.47" class="st1" width="282.61" height="36.89"/>
		<g class="st2">
			<g>
				<path class="st0" d="M100.86,253.7c-0.53,0.49-1,0.32-1.25-0.24c-0.32-0.7-0.56-1.46-0.75-2.21c-1.13-4.48-1.87-9.03-2.55-13.6
					c-3.42-22.93-6.07-45.95-7.2-69.12c-0.2-4.09-0.24-8.19-0.18-12.29c0.04-2.69,0.48-5.29,1.35-7.84c0.72-2.12,1.4-4.26,1.88-6.45
					c0.15-0.69,0.41-0.69,0.98-0.51c4.29,1.36,8.67,1.62,13.09,0.79c0.54-0.1,0.72,0.01,0.86,0.54c0.56,2.1,1.14,4.2,1.78,6.27
					c0.89,2.9,1.04,5.88,1.12,8.87c0.28,11.52-0.4,23.01-1.26,34.49c-1.31,17.44-3.03,34.84-5.71,52.13
					c-0.39,2.54-0.83,5.07-1.51,7.54C101.37,252.64,101.2,253.21,100.86,253.7z"/>
				<path class="st0" d="M106.08,96.14c-1.53,3.66-1.36,7.44-0.75,11.24c0.4,2.47,1.2,4.82,2.21,7.11
					c1.43,3.24,2.47,6.58,2.57,10.16c0.11,3.82-0.91,7.23-3.7,9.99c-0.73,0.72-1.54,1.21-2.58,1.4c-3.61,0.63-7.1,0.26-10.5-1.07
					c-0.23-0.09-0.44-0.2-0.58-0.41c-2.41-3.6-4.37-7.39-5.21-11.68c-1.21-6.16,0.3-11.66,4.11-16.57
					c3.7-4.77,8.59-8.04,13.88-10.78c0.5-0.26,0.64-0.01,0.71,0.41C106.13,95.96,105.97,95.95,106.08,96.14z"/>
				<path class="st0" d="M106.08,96.14c-0.04,0.03-0.08,0.06-0.12,0.08c-0.13,0.04-0.1-0.05-0.06-0.1c0.08-0.1,0.08-0.38,0.33-0.2
					C106.18,95.99,106.13,96.06,106.08,96.14z"/>
			</g>
			<g>
				<g>
					<path class="st3" d="M138.49,275.17l0.04,6.32c0.03,4.61,3.15,8.33,6.98,8.31l9.67-0.06c3.83-0.02,6.91-3.78,6.88-8.39
						l-0.04-6.32l-0.04-6.44l-23.53,0.14L138.49,275.17z"/>
					<path class="st0" d="M161.21,138.84l-0.04-6.49c-0.01-1.33-0.18-2.64-0.49-3.84l-6.78-25.84c-1.88-7.15-7.57-7.14-9.37,0.02
						l-6.43,25.44c-0.31,1.22-0.46,2.54-0.45,3.88l0.04,6.97l0.73,123.55l23.53-0.14L161.21,138.84z"/>
				</g>
				
					<rect x="130.19" y="130.85" transform="matrix(1 -5.883083e-03 5.883083e-03 1 -0.7864 0.8913)" class="st4" width="41.84" height="6.54"/>
			</g>
			<g>
				<path class="st0" d="M212.53,135.3l-15.16,0.16c0,0-2.63,26.62-2.66,26.62l21.12-0.23C215.8,161.85,212.53,135.3,212.53,135.3z"
					/>
				<path class="st0" d="M198.24,246.71c0.15,3.31,3.7,6.14,8.01,6.09c4.31-0.05,7.8-3.06,7.88-6.38l1.86-81.01l-21.37,0.23
					L198.24,246.71z"/>
				<path class="st0" d="M203.88,118.76l-0.24-22.31l-10.92,25.29l5.94,10.13l12.57-0.14l5.69-10.26l-11.49-25.05l0.24,22.31
					c1.25,0.38,2.19,1.53,2.21,2.9c0.02,1.69-1.32,3.08-3.02,3.1c-1.69,0.02-3.07-1.34-3.09-3.03
					C201.75,120.34,202.64,119.17,203.88,118.76z"/>
			</g>
		</g>
		<use xlink:href="#SVGID_1_"  style="overflow:visible;fill:none;stroke:#E4333A;stroke-width:9;stroke-miterlimit:10;"/>
	</g>
</g>
</svg>
