<?xml version="1.0" encoding="utf-8"?>
<!-- Generator: Adobe Illustrator 24.0.0, SVG Export Plug-In . SVG Version: 6.00 Build 0)  -->
<svg version="1.1" id="Capa_1" xmlns="http://www.w3.org/2000/svg" xmlns:xlink="http://www.w3.org/1999/xlink" x="0px" y="0px"
	 viewBox="0 0 300 300" style="enable-background:new 0 0 300 300;" xml:space="preserve">
<style type="text/css">
	.st0{fill:#E4333A;}
	.st1{clip-path:url(#SVGID_2_);fill:#E4333A;stroke:#E4333A;stroke-miterlimit:10;}
	.st2{clip-path:url(#SVGID_2_);}
	.st3{fill:#E4333A;stroke:#FFFFFF;stroke-width:2.8724;stroke-miterlimit:10;}
	.st4{fill:#FFFFFF;}
	.st5{fill:none;stroke:#E4333A;stroke-width:8;stroke-miterlimit:10;}
	.st6{clip-path:url(#SVGID_4_);fill:#E4333A;}
	.st7{clip-path:url(#SVGID_6_);fill:#E4333A;stroke:#E4333A;stroke-miterlimit:10;}
	.st8{fill:none;stroke:#E4333A;stroke-width:4.8967;stroke-miterlimit:10;}
	.st9{fill:#FFFFFF;stroke:#E4333A;stroke-width:8;stroke-miterlimit:10;}
	.st10{fill-rule:evenodd;clip-rule:evenodd;fill:#FFFFFF;}
</style>
<g>
	<g id="XMLID_10_">
		<g>
			<path class="st0" d="M230.04,71.08c4.66,0,8.6,2.88,8.6,6.3v134.09c0,3.41-3.94,6.3-8.6,6.3H28.53c-4.66,0-8.6-2.88-8.6-6.3
				V77.38c0-3.41,3.94-6.3,8.6-6.3H230.04 M230.04,63.08H28.53c-9.16,0-16.6,6.41-16.6,14.3v134.09c0,7.88,7.45,14.3,16.6,14.3
				h201.51c9.16,0,16.6-6.41,16.6-14.3V77.38C246.64,69.49,239.19,63.08,230.04,63.08L230.04,63.08z"/>
		</g>
	</g>
	<path id="XMLID_9_" class="st0" d="M28.53,63.08c-9.15,0-16.6,6.42-16.6,14.3v134.09c0,7.88,7.45,14.3,16.6,14.3h37.95V63.08H28.53
		z"/>
	<g>
		<g>
			<path id="XMLID_7_" class="st4" d="M29.73,94.51h18.94v7.5H29.73L29.73,94.51z"/>
			<path id="XMLID_1_" class="st4" d="M29.73,108.85h18.94v7.5H29.73L29.73,108.85z"/>
		</g>
		<g>
			<path id="XMLID_5_" class="st4" d="M29.73,172.49h18.94v7.5H29.73L29.73,172.49z"/>
			<path id="XMLID_4_" class="st4" d="M29.73,186.83h18.94v7.5H29.73L29.73,186.83z"/>
		</g>
		<circle class="st4" cx="39.2" cy="144.42" r="13.48"/>
		<circle class="st0" cx="39.2" cy="144.42" r="9.3"/>
	</g>
	<g>
		<path class="st0" d="M193.72,141.32c-0.76-0.39-1.56-0.69-2.36-0.85l-18.85-3.79c-5.22-1.05-7.56,3.22-3.85,7.03l13.16,13.56
			c0.63,0.65,1.39,1.22,2.22,1.67l0.08,0.05L193.72,141.32z"/>
		<path class="st0" d="M286.9,191.94l-3.94-2.14L198,143.62l-1.25-0.68l-9.61,17.68l1.25,0.68l84.96,46.18l3.94,2.14
			c2.88,1.56,6.48,0.5,8.04-2.38l3.95-7.27C290.84,197.11,289.78,193.51,286.9,191.94z"/>
	</g>
</g>
</svg>
