<?xml version="1.0" encoding="utf-8"?>
<!-- Generator: Adobe Illustrator 24.0.0, SVG Export Plug-In . SVG Version: 6.00 Build 0)  -->
<svg version="1.1" id="Capa_1" xmlns="http://www.w3.org/2000/svg" xmlns:xlink="http://www.w3.org/1999/xlink" x="0px" y="0px"
	 viewBox="0 0 140 140.4" style="enable-background:new 0 0 140 140.4;" xml:space="preserve">
<style type="text/css">
	.st0{opacity:0.59;fill:url(#SVGID_3_);}
	.st1{opacity:0.59;fill:url(#SVGID_6_);}
	.st2{clip-path:url(#SVGID_8_);}
	.st3{fill:#FFFFFF;}
	.st4{fill:#E4333A;}
	.st5{fill:#941324;}
	.st6{fill:#C02A36;}
	.st7{fill:#D3333A;}
	.st8{fill:#409C20;}
	.st9{fill:#FFFFFF;stroke:#000000;stroke-width:3;stroke-miterlimit:10;}
	.st10{fill:#434040;}
	.st11{fill:#FFFFFF;stroke:#000000;stroke-width:1.481;stroke-miterlimit:10;}
	.st12{fill:none;stroke:#FFFFFF;stroke-width:6.5263;stroke-miterlimit:10;}
	.st13{opacity:0.87;fill:#242424;}
	.st14{fill:none;stroke:#D84545;stroke-width:7.4309;stroke-miterlimit:10;}
	.st15{fill:#FFFFFF;stroke:#D84545;stroke-width:7.8332;stroke-miterlimit:10;}
	.st16{fill:#D84545;}
	.st17{fill:#FFFFFF;stroke:#D84545;stroke-width:5.0986;stroke-miterlimit:10;}
	.st18{fill:#FFFFFF;stroke:#D84545;stroke-width:3.3065;stroke-miterlimit:10;}
	.st19{fill:#FFFFFF;stroke:#000000;stroke-width:2.148;stroke-miterlimit:10;}
	.st20{fill:none;stroke:#E4333A;stroke-width:8;stroke-miterlimit:10;}
	.st21{clip-path:url(#SVGID_42_);fill:#E4333A;}
	.st22{clip-path:url(#SVGID_44_);fill:#E4333A;stroke:#E4333A;stroke-miterlimit:10;}
	.st23{fill:none;stroke:#E4333A;stroke-width:4.8967;stroke-miterlimit:10;}
	.st24{fill:#FFFFFF;stroke:#E4333A;stroke-width:8;stroke-miterlimit:10;}
	.st25{fill-rule:evenodd;clip-rule:evenodd;fill:#FFFFFF;}
	.st26{clip-path:url(#SVGID_46_);fill:#E4333A;stroke:#E4333A;stroke-miterlimit:10;}
	.st27{clip-path:url(#SVGID_46_);}
	.st28{fill:#E4333A;stroke:#FFFFFF;stroke-width:2.8724;stroke-miterlimit:10;}
	.st29{fill:none;stroke:#E4333A;stroke-width:4.1777;stroke-miterlimit:10;}
</style>
<g>
	<path class="st10" d="M58.96,67.55c0,0,11.27-0.84,11.27-14.06c0-13.22-9.22-19.67-20.9-19.67H10.9v73.87h38.44
		c0,0,23.46,0.74,23.46-21.81C72.79,85.88,73.82,67.55,58.96,67.55z M27.83,46.95h21.5c0,0,5.22,0,5.22,7.69
		c0,7.68-3.07,8.79-6.55,8.8H27.83V46.95z M48.34,94.56H27.83V74.82h21.5c0,0,7.78-0.1,7.78,10.14
		C57.12,93.51,51.42,94.47,48.34,94.56z"/>
	<rect x="88.2" y="38.17" class="st10" width="30.48" height="9.09"/>
	<path class="st10" d="M104.08,52.61c-28.41,0-28.37,28.38-28.37,28.38s-1.95,28.23,28.38,28.23c0,0,25.27,1.45,25.27-19.64h-13
		c0,0,0.43,7.94-11.84,7.94c0,0-13,0.87-13-12.85h38.27C129.8,84.68,133.98,52.61,104.08,52.61z M91.38,74.82
		c0,0,1.58-11.39,13-11.39c11.41,0,11.27,11.39,11.27,11.39H91.38z"/>
</g>
</svg>
