<?xml version="1.0" encoding="utf-8"?>
<!-- Generator: Adobe Illustrator 24.0.0, SVG Export Plug-In . SVG Version: 6.00 Build 0)  -->
<svg version="1.1" id="Capa_1" xmlns="http://www.w3.org/2000/svg" xmlns:xlink="http://www.w3.org/1999/xlink" x="0px" y="0px"
	 viewBox="0 0 140 140.4" style="enable-background:new 0 0 140 140.4;" xml:space="preserve">
<style type="text/css">
	.st0{opacity:0.59;fill:url(#SVGID_3_);}
	.st1{opacity:0.59;fill:url(#SVGID_6_);}
	.st2{clip-path:url(#SVGID_8_);}
	.st3{fill:#FFFFFF;}
	.st4{fill:#E4333A;}
	.st5{fill:#941324;}
	.st6{fill:#C02A36;}
	.st7{fill:#D3333A;}
	.st8{fill:#409C20;}
	.st9{fill:#FFFFFF;stroke:#000000;stroke-width:3;stroke-miterlimit:10;}
	.st10{fill:#434040;}
	.st11{fill:#FFFFFF;stroke:#000000;stroke-width:1.481;stroke-miterlimit:10;}
	.st12{fill:none;stroke:#FFFFFF;stroke-width:6.5263;stroke-miterlimit:10;}
	.st13{opacity:0.87;fill:#242424;}
	.st14{fill:none;stroke:#D84545;stroke-width:7.4309;stroke-miterlimit:10;}
	.st15{fill:#FFFFFF;stroke:#D84545;stroke-width:7.8332;stroke-miterlimit:10;}
	.st16{fill:#D84545;}
	.st17{fill:#FFFFFF;stroke:#D84545;stroke-width:5.0986;stroke-miterlimit:10;}
	.st18{fill:#FFFFFF;stroke:#D84545;stroke-width:3.3065;stroke-miterlimit:10;}
	.st19{fill:#FFFFFF;stroke:#000000;stroke-width:2.148;stroke-miterlimit:10;}
	.st20{fill:none;stroke:#E4333A;stroke-width:8;stroke-miterlimit:10;}
	.st21{clip-path:url(#SVGID_42_);fill:#E4333A;}
	.st22{clip-path:url(#SVGID_44_);fill:#E4333A;stroke:#E4333A;stroke-miterlimit:10;}
	.st23{fill:none;stroke:#E4333A;stroke-width:4.8967;stroke-miterlimit:10;}
	.st24{fill:#FFFFFF;stroke:#E4333A;stroke-width:8;stroke-miterlimit:10;}
	.st25{fill-rule:evenodd;clip-rule:evenodd;fill:#FFFFFF;}
	.st26{clip-path:url(#SVGID_46_);fill:#E4333A;stroke:#E4333A;stroke-miterlimit:10;}
	.st27{clip-path:url(#SVGID_46_);}
	.st28{fill:#E4333A;stroke:#FFFFFF;stroke-width:2.8724;stroke-miterlimit:10;}
	.st29{fill:none;stroke:#E4333A;stroke-width:4.1777;stroke-miterlimit:10;}
</style>
<path class="st10" d="M109.16,25.12H31.32c-4.75,0-8.6,3.85-8.6,8.6v77.84c0,4.75,3.85,8.6,8.6,8.6h77.84c4.75,0,8.6-3.85,8.6-8.6
	V33.71C117.76,28.97,113.91,25.12,109.16,25.12z M52.13,107.17c0,1.38-1.12,2.5-2.5,2.5H38.98c-1.38,0-2.5-1.12-2.5-2.5V62.53
	c0-1.38,1.12-2.5,2.5-2.5h10.65c1.38,0,2.5,1.12,2.5,2.5V107.17z M44.3,55.82c-5.59,0-10.12-4.53-10.12-10.12
	s4.53-10.12,10.12-10.12s10.12,4.53,10.12,10.12S49.89,55.82,44.3,55.82z M107.78,107.38c0,1.27-1.03,2.3-2.3,2.3H94.06
	c-1.27,0-2.3-1.03-2.3-2.3V86.44c0-3.12,0.92-13.69-8.16-13.69c-7.04,0-8.47,7.23-8.76,10.48v24.15c0,1.27-1.03,2.3-2.3,2.3H61.48
	c-1.27,0-2.3-1.03-2.3-2.3V62.33c0-1.27,1.03-2.3,2.3-2.3h11.05c1.27,0,2.3,1.03,2.3,2.3v3.89c2.61-3.92,6.49-6.94,14.76-6.94
	c18.3,0,18.19,17.09,18.19,26.49L107.78,107.38L107.78,107.38z"/>
</svg>
