<?xml version="1.0" encoding="utf-8"?>
<!-- Generator: Adobe Illustrator 24.0.0, SVG Export Plug-In . SVG Version: 6.00 Build 0)  -->
<svg version="1.1" id="Capa_1" xmlns="http://www.w3.org/2000/svg" xmlns:xlink="http://www.w3.org/1999/xlink" x="0px" y="0px"
	 viewBox="0 0 100 40" style="enable-background:new 0 0 100 40;" xml:space="preserve">
<style type="text/css">
	.st0{fill:#FFFFFF;}
</style>
<g>
	<path d="M28.97,16.7c0.04-0.12,0.15-0.19,0.28-0.19h3.73c0.16,0,0.3,0.13,0.3,0.3v0.09c0,0.03-0.01,0.07-0.02,0.1l-5.37,14.49
		c-0.04,0.12-0.15,0.19-0.28,0.19h-3.74c-0.12,0-0.23-0.08-0.28-0.19L18.22,17c-0.01-0.03-0.02-0.07-0.02-0.1V16.8
		c0-0.16,0.13-0.29,0.3-0.29h3.73c0.12,0,0.23,0.08,0.28,0.19l3.23,8.71L28.97,16.7z"/>
	<path d="M57.09,31.68h-8.47c-0.16,0-0.3-0.13-0.3-0.3V16.81c0-0.16,0.13-0.3,0.3-0.3h3.67c0.16,0,0.3,0.13,0.3,0.3v11.34h4.5
		c0.16,0,0.3,0.13,0.3,0.3v2.94C57.39,31.55,57.25,31.68,57.09,31.68"/>
	<path d="M66.32,19.83c0,0.16-0.13,0.3-0.3,0.3h-3.33v11.26c0,0.16-0.13,0.3-0.3,0.3h-3.67c-0.16,0-0.3-0.13-0.3-0.3V20.12H55.1
		c-0.16,0-0.3-0.13-0.3-0.3v-3.02c0-0.16,0.13-0.3,0.3-0.3h10.92c0.16,0,0.29,0.13,0.29,0.3V19.83z"/>
	<path d="M74.56,31.49c0.04,0.12,0.15,0.19,0.28,0.19h3.73c0.16,0,0.29-0.13,0.3-0.3v-0.09c0-0.04-0.01-0.07-0.02-0.1L73.47,16.7
		c-0.04-0.12-0.15-0.19-0.28-0.19h-3.74c-0.12,0-0.23,0.08-0.28,0.19l-5.37,14.49c-0.01,0.03-0.02,0.07-0.02,0.1v0.09
		c0,0.16,0.13,0.3,0.3,0.3h3.73c0.12,0,0.23-0.08,0.28-0.19l2.25-6.04l0.99-2.66L74.56,31.49z"/>
	<path d="M79.31,27.94c0-0.15,0.11-0.29,0.27-0.3c2.33-0.16,3.83-1.99,3.83-4.14v-6.7c0-0.16,0.13-0.29,0.29-0.29h3.67
		c0.16,0,0.3,0.13,0.3,0.29v7.67c0,3.15-1.97,7.08-8.05,7.21c-0.16,0-0.3-0.13-0.3-0.29V27.94z"/>
	<polyline points="32.15,26.49 32.15,26.49 32.15,26.49 	"/>
	<path d="M47.49,25.51c0-0.02,0.01-0.04,0.01-0.07c0.01-0.08,0.03-0.16,0.04-0.25c0-0.02,0-0.04,0.01-0.05
		c0.01-0.08,0.02-0.17,0.03-0.25c0-0.03,0-0.05,0.01-0.08c0.01-0.09,0.01-0.18,0.02-0.27c0-0.02,0-0.05,0-0.07
		c0-0.09,0.01-0.19,0.01-0.28c0,0,0-0.01,0-0.01c0-0.1,0-0.21-0.01-0.31c0-0.01,0-0.02,0-0.03c-0.15-3.37-2.52-6.18-5.7-7.04v-0.03
		c-0.66-0.18-1.34-0.27-2.06-0.27c-0.71,0-1.4,0.1-2.06,0.27v0.03c-3.18,0.86-5.55,3.67-5.7,7.04l0,0.03c0,0.1-0.01,0.2-0.01,0.31
		c0,0,0,0.01,0,0.01c0,0.09,0,0.19,0.01,0.28c0,0.02,0,0.05,0,0.07c0,0.09,0.01,0.18,0.02,0.26c0,0.03,0,0.05,0.01,0.08
		c0.01,0.08,0.02,0.16,0.03,0.25c0,0.02,0.01,0.04,0.01,0.06c0.01,0.08,0.02,0.16,0.04,0.24c0,0.02,0.01,0.05,0.01,0.07
		c0.02,0.09,0.03,0.18,0.05,0.26c0,0.02,0.01,0.04,0.01,0.06c0.04,0.2,0.09,0.39,0.15,0.58c0,0,0,0,0,0
		c0.77,2.51,2.81,4.47,5.38,5.16v0.02c0.66,0.18,1.34,0.27,2.06,0.27c0.71,0,1.4-0.1,2.06-0.27v-0.02c2.77-0.75,4.91-2.97,5.53-5.75
		c0-0.02,0.01-0.03,0.01-0.05C47.45,25.69,47.47,25.6,47.49,25.51 M41.9,27.05c-0.58,0.41-1.29,0.65-2.06,0.65
		c-0.77,0-1.48-0.24-2.06-0.65c-0.91-0.64-1.5-1.68-1.5-2.86c0-1.18,0.59-2.22,1.5-2.85c0.58-0.41,1.29-0.65,2.06-0.65
		c0.77,0,1.48,0.24,2.06,0.65c0.91,0.64,1.5,1.68,1.5,2.85C43.39,25.37,42.8,26.41,41.9,27.05"/>
	<path d="M93.09,25.91c0.09,0,0.16-0.13,0.16-0.3v-3.03c0-0.16-0.07-0.3-0.16-0.3h-2.3h-2.29v3.62h2.29v0H93.09z"/>
	<path d="M97.7,28.06h-4.95v0h-4.26v3.32c0,0.16,0.13,0.3,0.3,0.3h8.92c0.16,0,0.3-0.13,0.3-0.3v-3.03
		C98,28.2,97.87,28.06,97.7,28.06"/>
	<path d="M97.7,16.51h-8.92c-0.16,0-0.3,0.13-0.3,0.3v3.32h4.26h4.95c0.16,0,0.3-0.13,0.3-0.3v-3.03
		C98,16.64,97.87,16.51,97.7,16.51"/>
	<path d="M26.14,35.58c-0.08,0.18-0.18,0.34-0.32,0.47c-0.14,0.13-0.31,0.24-0.5,0.31c-0.19,0.08-0.41,0.11-0.64,0.11h-1.16v-2.97
		h1.16c0.23,0,0.44,0.04,0.64,0.11c0.19,0.07,0.36,0.18,0.5,0.31c0.14,0.13,0.25,0.29,0.32,0.47c0.08,0.18,0.11,0.37,0.11,0.58V35
		C26.26,35.21,26.22,35.4,26.14,35.58 M25.57,35c0-0.13-0.02-0.25-0.07-0.36c-0.04-0.11-0.1-0.2-0.18-0.28
		c-0.08-0.08-0.17-0.14-0.28-0.18c-0.11-0.04-0.23-0.07-0.36-0.07h-0.5v1.79h0.5c0.13,0,0.25-0.02,0.36-0.06
		c0.11-0.04,0.2-0.1,0.28-0.18c0.08-0.08,0.14-0.17,0.18-0.28C25.55,35.26,25.57,35.14,25.57,35L25.57,35z"/>
	<rect x="28.05" y="33.52" width="0.65" height="2.97"/>
	<path d="M32.7,36c-0.05,0.11-0.13,0.21-0.22,0.29c-0.1,0.08-0.21,0.14-0.34,0.18c-0.13,0.04-0.28,0.06-0.44,0.06
		c-0.23,0-0.45-0.04-0.67-0.12c-0.22-0.08-0.42-0.2-0.59-0.36l0.39-0.46c0.14,0.11,0.27,0.2,0.42,0.26c0.14,0.07,0.3,0.1,0.47,0.1
		c0.14,0,0.24-0.02,0.32-0.07c0.07-0.05,0.11-0.12,0.11-0.21v-0.01c0-0.04-0.01-0.08-0.02-0.11c-0.02-0.03-0.05-0.06-0.09-0.09
		c-0.04-0.03-0.1-0.06-0.18-0.08c-0.08-0.03-0.18-0.06-0.3-0.09c-0.15-0.04-0.29-0.08-0.41-0.12c-0.12-0.05-0.23-0.1-0.31-0.17
		c-0.09-0.07-0.15-0.15-0.2-0.25c-0.05-0.1-0.07-0.22-0.07-0.37v-0.01c0-0.14,0.03-0.26,0.08-0.37c0.05-0.11,0.12-0.2,0.21-0.28
		c0.09-0.08,0.2-0.14,0.33-0.18c0.13-0.04,0.27-0.06,0.42-0.06c0.22,0,0.42,0.03,0.6,0.1c0.18,0.06,0.35,0.16,0.5,0.28l-0.34,0.49
		c-0.13-0.09-0.26-0.16-0.39-0.21c-0.13-0.05-0.25-0.08-0.38-0.08c-0.13,0-0.22,0.02-0.29,0.07c-0.06,0.05-0.1,0.11-0.1,0.18v0.01
		c0,0.05,0.01,0.09,0.03,0.13c0.02,0.04,0.05,0.07,0.1,0.1c0.05,0.03,0.11,0.06,0.2,0.08c0.08,0.03,0.19,0.06,0.32,0.09
		c0.15,0.04,0.28,0.08,0.4,0.13c0.12,0.05,0.22,0.11,0.3,0.18c0.08,0.07,0.14,0.15,0.18,0.24c0.04,0.09,0.06,0.2,0.06,0.33v0.01
		C32.78,35.75,32.75,35.88,32.7,36"/>
	<polygon points="34.53,36.48 34.53,33.52 36.77,33.52 36.77,34.1 35.18,34.1 35.18,34.7 36.58,34.7 36.58,35.28 35.18,35.28 
		35.18,35.9 36.79,35.9 36.79,36.48 	"/>
	<path d="M40.64,36.48l-1.44-1.89v1.89h-0.64v-2.97h0.6l1.39,1.83v-1.83h0.64v2.97H40.64z M40.56,33.12
		c-0.08,0.11-0.19,0.16-0.34,0.16c-0.07,0-0.13-0.01-0.19-0.03c-0.06-0.02-0.12-0.04-0.17-0.06c-0.05-0.02-0.1-0.04-0.15-0.06
		s-0.09-0.03-0.12-0.03c-0.07,0-0.11,0.02-0.15,0.05c-0.03,0.04-0.06,0.09-0.1,0.15l-0.34-0.11c0.03-0.09,0.05-0.17,0.08-0.24
		c0.03-0.07,0.06-0.13,0.11-0.18c0.04-0.05,0.09-0.09,0.14-0.12c0.05-0.03,0.12-0.04,0.19-0.04c0.06,0,0.13,0.01,0.19,0.03
		c0.06,0.02,0.12,0.04,0.17,0.06c0.05,0.02,0.1,0.04,0.15,0.06c0.05,0.02,0.09,0.03,0.13,0.03c0.06,0,0.11-0.02,0.15-0.05
		c0.03-0.04,0.06-0.09,0.1-0.15l0.34,0.11C40.7,32.88,40.64,33.02,40.56,33.12"/>
	<path d="M46,35.59c-0.08,0.19-0.19,0.35-0.33,0.49c-0.14,0.14-0.31,0.25-0.5,0.33c-0.19,0.08-0.4,0.12-0.63,0.12
		c-0.23,0-0.44-0.04-0.63-0.12c-0.19-0.08-0.36-0.19-0.5-0.33c-0.14-0.14-0.25-0.3-0.33-0.48c-0.08-0.18-0.12-0.38-0.12-0.6V35
		c0-0.21,0.04-0.41,0.12-0.6c0.08-0.19,0.19-0.35,0.33-0.49c0.14-0.14,0.31-0.25,0.5-0.33c0.19-0.08,0.4-0.12,0.63-0.12
		c0.23,0,0.44,0.04,0.63,0.12c0.19,0.08,0.36,0.19,0.5,0.33c0.14,0.14,0.25,0.3,0.33,0.48c0.08,0.19,0.12,0.38,0.12,0.6V35
		C46.12,35.21,46.08,35.41,46,35.59 M45.44,35c0-0.13-0.02-0.25-0.07-0.36c-0.04-0.11-0.11-0.21-0.19-0.3
		c-0.08-0.08-0.18-0.15-0.29-0.2c-0.11-0.05-0.23-0.07-0.36-0.07c-0.13,0-0.25,0.02-0.36,0.07c-0.11,0.05-0.2,0.11-0.28,0.2
		c-0.08,0.08-0.14,0.18-0.18,0.29c-0.04,0.11-0.07,0.23-0.07,0.36V35c0,0.13,0.02,0.25,0.07,0.36c0.04,0.11,0.11,0.21,0.19,0.3
		c0.08,0.08,0.18,0.15,0.28,0.2c0.11,0.05,0.23,0.07,0.36,0.07c0.13,0,0.25-0.02,0.36-0.07c0.11-0.05,0.2-0.11,0.28-0.2
		c0.08-0.08,0.14-0.18,0.18-0.29C45.41,35.25,45.44,35.13,45.44,35L45.44,35z"/>
	<polygon points="51.83,35.3 51.83,36.48 51.18,36.48 51.18,35.31 50.04,33.52 50.8,33.52 51.51,34.71 52.23,33.52 52.97,33.52 	"/>
	<path d="M59.28,35c-0.06,0.13-0.15,0.24-0.26,0.33c-0.11,0.09-0.24,0.15-0.38,0.2c-0.15,0.04-0.3,0.07-0.47,0.07h-0.5v0.89h-0.65
		v-2.97h1.21c0.18,0,0.34,0.02,0.48,0.07c0.14,0.05,0.26,0.12,0.36,0.21c0.1,0.09,0.17,0.2,0.22,0.32c0.05,0.13,0.08,0.27,0.08,0.42
		v0.01C59.37,34.72,59.34,34.87,59.28,35 M58.71,34.55c0-0.15-0.05-0.26-0.14-0.33c-0.09-0.08-0.22-0.11-0.39-0.11h-0.5v0.91h0.52
		c0.16,0,0.29-0.04,0.38-0.13C58.67,34.8,58.71,34.69,58.71,34.55L58.71,34.55z"/>
	<path d="M63.49,35.78c-0.06,0.17-0.15,0.31-0.26,0.42c-0.11,0.11-0.25,0.19-0.41,0.25c-0.16,0.06-0.34,0.08-0.54,0.08
		c-0.4,0-0.71-0.11-0.94-0.33C61.11,35.98,61,35.65,61,35.21v-1.7h0.65v1.68c0,0.24,0.06,0.43,0.17,0.55
		c0.11,0.12,0.27,0.18,0.47,0.18c0.2,0,0.36-0.06,0.47-0.18c0.11-0.12,0.17-0.3,0.17-0.53v-1.7h0.65v1.67
		C63.58,35.42,63.55,35.61,63.49,35.78"/>
	<path d="M67.87,36.03c-0.05,0.1-0.13,0.19-0.22,0.25c-0.1,0.07-0.21,0.12-0.35,0.15c-0.14,0.03-0.29,0.05-0.45,0.05h-1.41v-2.97
		h1.38c0.3,0,0.54,0.07,0.72,0.21c0.17,0.14,0.26,0.32,0.26,0.56v0.01c0,0.08-0.01,0.16-0.03,0.22c-0.02,0.07-0.05,0.12-0.08,0.18
		c-0.04,0.05-0.08,0.1-0.12,0.14c-0.05,0.04-0.1,0.07-0.15,0.1c0.17,0.06,0.31,0.15,0.4,0.26c0.1,0.11,0.15,0.27,0.15,0.46v0.01
		C67.95,35.8,67.93,35.92,67.87,36.03 M67.14,34.39c0-0.1-0.04-0.17-0.11-0.23c-0.07-0.05-0.18-0.08-0.32-0.08h-0.64v0.63h0.6
		c0.14,0,0.26-0.02,0.34-0.07C67.1,34.59,67.14,34.51,67.14,34.39L67.14,34.39z M67.31,35.58c0-0.1-0.04-0.18-0.11-0.24
		c-0.08-0.06-0.2-0.09-0.37-0.09h-0.75v0.65h0.78c0.14,0,0.26-0.03,0.34-0.08C67.27,35.78,67.31,35.7,67.31,35.58L67.31,35.58z"/>
	<polygon points="69.68,36.48 69.68,33.52 70.33,33.52 70.33,35.89 71.81,35.89 71.81,36.48 	"/>
	<rect x="73.52" y="33.52" width="0.65" height="2.97"/>
	<path d="M78.47,36.22c-0.08,0.06-0.17,0.12-0.27,0.17c-0.1,0.05-0.2,0.08-0.32,0.11c-0.12,0.02-0.25,0.04-0.39,0.04
		c-0.22,0-0.42-0.04-0.61-0.12c-0.19-0.08-0.35-0.19-0.48-0.32c-0.14-0.14-0.24-0.3-0.32-0.49c-0.08-0.19-0.11-0.39-0.11-0.6V35
		c0-0.21,0.04-0.41,0.11-0.6c0.08-0.19,0.18-0.35,0.32-0.49c0.14-0.14,0.3-0.25,0.49-0.33c0.19-0.08,0.4-0.12,0.63-0.12
		c0.14,0,0.27,0.01,0.38,0.03c0.11,0.02,0.22,0.05,0.31,0.09c0.09,0.04,0.18,0.09,0.26,0.14c0.08,0.06,0.15,0.12,0.22,0.19
		l-0.42,0.48c-0.12-0.1-0.23-0.19-0.35-0.25c-0.12-0.06-0.26-0.09-0.4-0.09c-0.12,0-0.24,0.02-0.35,0.07
		c-0.11,0.05-0.2,0.11-0.27,0.2c-0.08,0.08-0.14,0.18-0.18,0.29c-0.04,0.11-0.06,0.23-0.06,0.36V35c0,0.13,0.02,0.25,0.06,0.36
		c0.04,0.11,0.1,0.21,0.18,0.3c0.07,0.08,0.17,0.15,0.27,0.2c0.11,0.05,0.22,0.07,0.35,0.07c0.17,0,0.31-0.03,0.43-0.09
		c0.12-0.06,0.23-0.15,0.35-0.25L78.71,36C78.63,36.09,78.55,36.16,78.47,36.22"/>
	<rect x="80.45" y="33.52" width="0.65" height="2.97"/>
	<path d="M85.65,35.58c-0.08,0.18-0.18,0.34-0.32,0.47c-0.14,0.13-0.31,0.24-0.5,0.31c-0.19,0.08-0.41,0.11-0.64,0.11h-1.16v-2.97
		h1.16c0.23,0,0.44,0.04,0.64,0.11c0.19,0.07,0.36,0.18,0.5,0.31c0.14,0.13,0.25,0.29,0.32,0.47c0.08,0.18,0.11,0.37,0.11,0.58V35
		C85.76,35.21,85.72,35.4,85.65,35.58 M85.08,35c0-0.13-0.02-0.25-0.07-0.36c-0.04-0.11-0.1-0.2-0.18-0.28
		c-0.08-0.08-0.17-0.14-0.28-0.18c-0.11-0.04-0.23-0.07-0.36-0.07h-0.5v1.79h0.5c0.13,0,0.25-0.02,0.36-0.06
		c0.11-0.04,0.2-0.1,0.28-0.18c0.08-0.08,0.14-0.17,0.18-0.28C85.06,35.26,85.08,35.14,85.08,35L85.08,35z"/>
	<path d="M89.74,36.48l-0.27-0.67h-1.25l-0.27,0.67h-0.67l1.27-2.99h0.6l1.27,2.99H89.74z M88.84,34.28l-0.39,0.96h0.79L88.84,34.28
		z"/>
	<path d="M94.69,35.58c-0.08,0.18-0.18,0.34-0.32,0.47c-0.14,0.13-0.31,0.24-0.5,0.31c-0.19,0.08-0.41,0.11-0.64,0.11h-1.16v-2.97
		h1.16c0.23,0,0.44,0.04,0.64,0.11c0.19,0.07,0.36,0.18,0.5,0.31c0.14,0.13,0.25,0.29,0.32,0.47c0.08,0.18,0.11,0.37,0.11,0.58V35
		C94.8,35.21,94.76,35.4,94.69,35.58 M94.12,35c0-0.13-0.02-0.25-0.07-0.36c-0.04-0.11-0.1-0.2-0.18-0.28
		c-0.08-0.08-0.17-0.14-0.28-0.18c-0.11-0.04-0.23-0.07-0.36-0.07h-0.5v1.79h0.5c0.13,0,0.25-0.02,0.36-0.06
		c0.11-0.04,0.2-0.1,0.28-0.18c0.08-0.08,0.14-0.17,0.18-0.28C94.1,35.26,94.12,35.14,94.12,35L94.12,35z"/>
	<polygon points="15.9,30.38 15.8,22.5 18.96,22.6 17.2,18.63 16.57,20.06 13.43,20.06 	"/>
	<polygon points="19.2,2.47 18.94,11.85 14.41,10.01 17.05,17.55 17.57,15.19 21.54,15.09 	"/>
	<polygon points="3.2,25.66 8.8,21.22 9.02,14.5 16.19,18.69 12,18.69 12.71,22.38 	"/>
	<polygon points="1.69,6.29 6.26,10.67 11.44,8.61 16.39,17.85 9.36,12.82 6.73,14.88 	"/>
</g>
</svg>
