<?xml version="1.0" encoding="utf-8"?>
<!-- Generator: Adobe Illustrator 24.0.0, SVG Export Plug-In . SVG Version: 6.00 Build 0)  -->
<svg version="1.1" id="Capa_1" xmlns="http://www.w3.org/2000/svg" xmlns:xlink="http://www.w3.org/1999/xlink" x="0px" y="0px"
	 viewBox="0 0 140 140.4" style="enable-background:new 0 0 140 140.4;" xml:space="preserve">
<style type="text/css">
	.st0{opacity:0.59;fill:url(#SVGID_3_);}
	.st1{opacity:0.59;fill:url(#SVGID_6_);}
	.st2{clip-path:url(#SVGID_8_);}
	.st3{fill:#FFFFFF;}
	.st4{fill:#E4333A;}
	.st5{fill:#941324;}
	.st6{fill:#C02A36;}
	.st7{fill:#D3333A;}
	.st8{fill:#409C20;}
	.st9{fill:#FFFFFF;stroke:#000000;stroke-width:3;stroke-miterlimit:10;}
	.st10{fill:#434040;}
	.st11{fill:#FFFFFF;stroke:#000000;stroke-width:1.481;stroke-miterlimit:10;}
	.st12{fill:none;stroke:#FFFFFF;stroke-width:6.5263;stroke-miterlimit:10;}
	.st13{opacity:0.87;fill:#242424;}
	.st14{fill:none;stroke:#D84545;stroke-width:7.4309;stroke-miterlimit:10;}
	.st15{fill:#FFFFFF;stroke:#D84545;stroke-width:7.8332;stroke-miterlimit:10;}
	.st16{fill:#D84545;}
	.st17{fill:#FFFFFF;stroke:#D84545;stroke-width:5.0986;stroke-miterlimit:10;}
	.st18{fill:#FFFFFF;stroke:#D84545;stroke-width:3.3065;stroke-miterlimit:10;}
	.st19{fill:#FFFFFF;stroke:#000000;stroke-width:2.148;stroke-miterlimit:10;}
	.st20{fill:none;stroke:#E4333A;stroke-width:8;stroke-miterlimit:10;}
	.st21{clip-path:url(#SVGID_42_);fill:#E4333A;}
	.st22{clip-path:url(#SVGID_44_);fill:#E4333A;stroke:#E4333A;stroke-miterlimit:10;}
	.st23{fill:none;stroke:#E4333A;stroke-width:4.8967;stroke-miterlimit:10;}
	.st24{fill:#FFFFFF;stroke:#E4333A;stroke-width:8;stroke-miterlimit:10;}
	.st25{fill-rule:evenodd;clip-rule:evenodd;fill:#FFFFFF;}
	.st26{clip-path:url(#SVGID_46_);fill:#E4333A;stroke:#E4333A;stroke-miterlimit:10;}
	.st27{clip-path:url(#SVGID_46_);}
	.st28{fill:#E4333A;stroke:#FFFFFF;stroke-width:2.8724;stroke-miterlimit:10;}
	.st29{fill:none;stroke:#E4333A;stroke-width:4.1777;stroke-miterlimit:10;}
</style>
<g>
	<path class="st10" d="M120.21,72.04c-0.15,7.27-0.23,14.54-0.48,21.81c-0.2,6.07-1.56,11.87-5.04,16.97
		c-4.88,7.16-11.9,10.8-20.33,11.69c-4.84,0.51-9.74,0.65-14.61,0.65c-10.86,0.01-21.72-0.11-32.57-0.31
		c-5.37-0.1-10.56-1.25-15.26-3.95c-7.61-4.36-11.98-11.09-13.17-19.66C18,93.87,17.83,88.39,17.8,82.95
		c-0.05-10.95,0.07-21.91,0.31-32.86c0.13-6.02,1.57-11.77,5.02-16.82c4.88-7.16,11.9-10.8,20.34-11.69
		c4.84-0.51,9.74-0.65,14.61-0.66c10.86-0.01,21.72,0.11,32.57,0.31c5.37,0.1,10.56,1.25,15.27,3.95c7.61,4.37,12,11.09,13.16,19.66
		c0.76,5.66,0.76,11.44,0.98,17.17c0.13,3.34,0.02,6.7,0.02,10.05C120.12,72.04,120.16,72.04,120.21,72.04z M68.9,114.2
		c0-0.09,0.01-0.17,0.01-0.26c4.26,0,8.52,0.11,12.77-0.03c4.39-0.14,8.82-0.22,13.15-0.88c7.21-1.1,12.29-5.14,14.41-12.28
		c0.74-2.49,1.17-5.16,1.24-7.76c0.24-9.18,0.36-18.36,0.33-27.54c-0.01-5.83-0.17-11.67-0.61-17.48
		c-0.43-5.6-2.67-10.45-7.42-13.82c-3.77-2.67-8.14-3.64-12.63-3.68C76,30.36,61.84,30.37,47.69,30.46
		c-4.05,0.02-8.01,0.85-11.55,2.98c-5.45,3.28-8.03,8.41-8.51,14.51c-0.46,5.71-0.58,11.46-0.6,17.2c-0.02,9.32,0.1,18.65,0.3,27.97
		c0.1,4.49,0.97,8.86,3.6,12.65c3.35,4.84,8.24,7.17,13.89,7.54C52.84,113.84,60.87,113.92,68.9,114.2z"/>
	<path class="st10" d="M96.19,38.58c3.47-0.02,6.18,2.67,6.19,6.14c0.01,3.37-2.69,6.12-6.05,6.16c-3.45,0.04-6.24-2.66-6.27-6.08
		C90.04,41.34,92.74,38.6,96.19,38.58z"/>
	<path class="st10" d="M68.95,45.74c-14.56,0-26.33,11.71-26.34,26.22C42.6,86.58,54.33,98.33,68.95,98.33
		c14.5,0.01,26.28-11.79,26.27-26.29C95.21,57.5,83.47,45.74,68.95,45.74z M68.96,89.07c-9.35,0.04-16.99-7.53-17.07-16.91
		c-0.08-9.41,7.53-17.1,16.97-17.15c9.41-0.04,17.08,7.62,17.07,17.05C85.93,81.42,78.34,89.03,68.96,89.07z"/>
</g>
</svg>
